<svg xmlns="http://www.w3.org/2000/svg" viewBox="0 0 240 240">
  <!-- Frankfurter Polo Club arms — static twin of components/shared/ClubCrest.tsx.
       Royal-arms-style achievement: crown, quartered shield (mallets / pony /
       polo balls / horseshoe), horse supporters, motto "VIRTUS IN EQUIS". -->
  <defs>
    <clipPath id="shield">
      <path d="M 84 58 L 156 58 L 156 108 C 156 130, 140 144, 120 152 C 100 144, 84 130, 84 108 Z"/>
    </clipPath>
    <g id="supporter" fill="#b08d3e">
      <path d="M 50 10 C 55 12, 56 18, 51 21 L 45 19 C 43 30, 38 38, 33 45 C 30 53, 27 61, 25 68 C 22 75, 15 77, 11 72 C 6 67, 6 59, 10 53 C 13 43, 19 33, 26 25 C 32 18, 38 13, 43 8 C 46 4, 49 6, 50 10 Z"/>
      <path d="M 42 9 L 44 1 L 48 7 Z"/>
      <path d="M 10 56 C 4 63, 2 73, 5 85 C 6 88, 10 87, 9 83 C 7 73, 9 64, 13 60 Z"/>
      <g stroke="#b08d3e" stroke-width="5" stroke-linecap="round" fill="none">
        <path d="M 33 41 C 41 37, 48 32, 54 26"/>
        <path d="M 31 48 C 38 46, 44 48, 50 53"/>
        <path d="M 14 70 C 13 79, 12 87, 13 95"/>
        <path d="M 21 73 C 22 81, 24 88, 27 95"/>
      </g>
    </g>
  </defs>

  <!-- Crown -->
  <g fill="#b08d3e">
    <path d="M 96 54 L 96 44 L 104 47 L 111 32 L 118 44 L 120 28 L 122 44 L 129 32 L 136 47 L 144 44 L 144 54 Z"/>
    <circle cx="111" cy="29" r="2.2" fill="#d7bc74"/>
    <circle cx="129" cy="29" r="2.2" fill="#d7bc74"/>
    <circle cx="120" cy="25" r="2.6"/>
    <path d="M 120 13 V 21 M 116.5 17 H 123.5" stroke="#b08d3e" stroke-width="2" fill="none"/>
  </g>

  <!-- Supporters -->
  <use href="#supporter" transform="translate(36 52)"/>
  <use href="#supporter" transform="translate(204 52) scale(-1 1)"/>

  <!-- Quartered shield -->
  <g clip-path="url(#shield)">
    <rect x="84" y="58" width="36" height="47" fill="#1b3626"/>
    <rect x="120" y="58" width="36" height="47" fill="#f3ead2"/>
    <rect x="84" y="105" width="36" height="47" fill="#f3ead2"/>
    <rect x="120" y="105" width="36" height="47" fill="#1b3626"/>

    <g transform="translate(102 81)" stroke="#b08d3e" stroke-width="2.8" stroke-linecap="round">
      <g transform="rotate(28)">
        <line x1="0" y1="-16" x2="0" y2="12"/>
        <rect x="-4.5" y="12" width="9" height="5" rx="2.5" fill="#b08d3e" stroke="none"/>
      </g>
      <g transform="rotate(-28)">
        <line x1="0" y1="-16" x2="0" y2="12"/>
        <rect x="-4.5" y="12" width="9" height="5" rx="2.5" fill="#b08d3e" stroke="none"/>
      </g>
    </g>

    <g transform="translate(138 81) scale(0.17) translate(-120 -70)" fill="#1b3626">
      <path d="M60 56 C 48 52, 38 44, 33 32 C 32 30, 35 28, 37 30 C 43 40, 52 48, 63 51 Z"/>
      <path d="M199 51 C 206 54, 207 62, 200 64 L 187 62 C 178 74, 167 80, 153 83 C 149 92, 141 96, 133 94 L 98 92 C 90 98, 80 98, 75 90 C 63 88, 56 78, 58 65 C 58 56, 62 49, 70 46 C 84 41, 102 40, 116 44 C 130 48, 145 44, 158 39 C 169 35, 178 33, 184 37 C 192 34, 197 43, 199 51 Z"/>
      <path d="M179 34 L 184 22 L 189 33 Z"/>
      <g stroke="#1b3626" stroke-width="7" stroke-linecap="round" fill="none">
        <path d="M142 86 C 152 96, 164 103, 177 106"/>
        <path d="M132 88 C 135 101, 130 112, 121 119"/>
        <path d="M78 84 C 67 95, 55 102, 43 105"/>
        <path d="M86 86 C 87 100, 93 111, 102 118"/>
      </g>
    </g>

    <circle cx="93.5" cy="118" r="4.2" fill="#1b3626"/>
    <circle cx="110.5" cy="118" r="4.2" fill="#1b3626"/>
    <circle cx="102" cy="131" r="4.2" fill="#1b3626"/>

    <path d="M 129 115 A 11 11 0 1 0 147 115" stroke="#b08d3e" stroke-width="4" stroke-linecap="round" fill="none"/>

    <path d="M 120 58 V 152 M 84 105 H 156" stroke="#b08d3e" stroke-width="1.5" fill="none"/>
  </g>
  <path d="M 84 58 L 156 58 L 156 108 C 156 130, 140 144, 120 152 C 100 144, 84 130, 84 108 Z" fill="none" stroke="#b08d3e" stroke-width="3"/>

  <!-- Compartment -->
  <path d="M 38 156 C 72 146, 168 146, 202 156 C 168 164, 72 164, 38 156 Z" fill="#1b3626" stroke="#b08d3e" stroke-width="1.5"/>

  <!-- Motto scroll -->
  <g stroke="#b08d3e" stroke-width="1.5" fill="#f3ead2">
    <path d="M 60 170 L 42 168 L 48 178 L 43 188 L 62 187 Z"/>
    <path d="M 180 170 L 198 168 L 192 178 L 197 188 L 178 187 Z"/>
    <path d="M 60 170 C 92 163, 148 163, 180 170 L 178 187 C 148 180, 92 180, 62 187 Z"/>
  </g>
  <text x="120" y="179.5" font-family="Times New Roman, Georgia, serif" font-size="11.5" letter-spacing="1.2" text-anchor="middle" fill="#1b3626">VIRTUS IN EQUIS</text>

  <text x="120" y="204" font-family="Times New Roman, Georgia, serif" font-size="10.5" letter-spacing="4" text-anchor="middle" fill="#b08d3e">MCMII</text>
</svg>
