<svg xmlns="http://www.w3.org/2000/svg" viewBox="0 0 240 240">
  <!-- Frankfurter Polo Club crest — static twin of components/shared/ClubCrest.tsx.
       Motto: "VIRTUS IN EQUIS" — excellence lies in horses. -->
  <defs>
    <path id="arc-top" d="M 32 120 A 88 88 0 0 1 208 120" fill="none"/>
    <path id="arc-bottom" d="M 26 120 A 94 94 0 0 0 214 120" fill="none"/>
  </defs>

  <circle cx="120" cy="120" r="116" fill="#1b3626" stroke="#b08d3e" stroke-width="7"/>
  <circle cx="120" cy="120" r="104" fill="none" stroke="#b08d3e" stroke-width="1.5"/>
  <circle cx="120" cy="120" r="78" fill="none" stroke="#b08d3e" stroke-width="1.5"/>

  <text font-family="Times New Roman, Georgia, serif" font-size="15" letter-spacing="2.5" fill="#d7bc74">
    <textPath href="#arc-top" startOffset="50%" text-anchor="middle">FRANKFURTER POLO CLUB</textPath>
  </text>
  <text font-family="Times New Roman, Georgia, serif" font-size="15" letter-spacing="3" fill="#d7bc74">
    <textPath href="#arc-bottom" startOffset="50%" text-anchor="middle">VIRTUS IN EQUIS</textPath>
  </text>

  <path d="M 29 115.5 L 31.6 117.4 L 33.5 120 L 31.6 122.6 L 29 124.5 L 26.4 122.6 L 24.5 120 L 26.4 117.4 Z" fill="#b08d3e"/>
  <path d="M 211 115.5 L 213.6 117.4 L 215.5 120 L 213.6 122.6 L 211 124.5 L 208.4 122.6 L 206.5 120 L 208.4 117.4 Z" fill="#b08d3e"/>

  <!-- Crossed polo mallets -->
  <g stroke="#b08d3e" stroke-width="4.5" stroke-linecap="round">
    <g transform="translate(120 112) rotate(26)">
      <line x1="0" y1="-64" x2="0" y2="52"/>
      <rect x="-11" y="52" width="22" height="11" rx="5.5" fill="#b08d3e" stroke="none"/>
    </g>
    <g transform="translate(120 112) rotate(-26)">
      <line x1="0" y1="-64" x2="0" y2="52"/>
      <rect x="-11" y="52" width="22" height="11" rx="5.5" fill="#b08d3e" stroke="none"/>
    </g>
  </g>

  <!-- Galloping pony (shared motif) -->
  <g transform="translate(120 112) scale(0.63) translate(-120 -70)" fill="#f3ead2">
    <path d="M60 56 C 48 52, 38 44, 33 32 C 32 30, 35 28, 37 30 C 43 40, 52 48, 63 51 Z"/>
    <path d="M199 51 C 206 54, 207 62, 200 64 L 187 62 C 178 74, 167 80, 153 83 C 149 92, 141 96, 133 94 L 98 92 C 90 98, 80 98, 75 90 C 63 88, 56 78, 58 65 C 58 56, 62 49, 70 46 C 84 41, 102 40, 116 44 C 130 48, 145 44, 158 39 C 169 35, 178 33, 184 37 C 192 34, 197 43, 199 51 Z"/>
    <path d="M179 34 L 184 22 L 189 33 Z"/>
    <g stroke="#f3ead2" stroke-width="7" stroke-linecap="round" fill="none">
      <path d="M142 86 C 152 96, 164 103, 177 106"/>
      <path d="M132 88 C 135 101, 130 112, 121 119"/>
      <path d="M78 84 C 67 95, 55 102, 43 105"/>
      <path d="M86 86 C 87 100, 93 111, 102 118"/>
    </g>
  </g>

  <text x="120" y="184" font-family="Times New Roman, Georgia, serif" font-size="12" letter-spacing="4" text-anchor="middle" fill="#d7bc74">MCMII</text>
</svg>
